<?xml version="1.0" standalone="no"?>
<!DOCTYPE svg PUBLIC "-//W3C//DTD SVG 1.1//EN" "http://www.w3.org/Graphics/SVG/1.1/DTD/svg11.dtd">
<svg t="1707282006096" class="icon" viewBox="0 0 1024 1024" version="1.1"
    xmlns="http://www.w3.org/2000/svg" p-id="1469" xmlns:xlink="http://www.w3.org/1999/xlink"
    width="200" height="200">
    <path
        d="M983.76013808 897.73514288l-0.03535825-612.89840292 0.03425328-2.19441997c0.07734613-5.83631735 0.20220486-18.79179274-7.33020244-26.4468489-3.29162995-3.32477828-9.13678686-10.46714017-18.41058686-10.46714016H627.63870478l137.07942653-194.80394211c8.17659001-11.79086377 5.22307312-26.39160166-6.57884012-34.56156199-11.79638851-8.16333067-27.98935155-7.61196332-36.15599706 4.18774l-157.54742024 225.17665915H511.95321548c-1.4839406 0-3.0850053 0.70053486-4.90484904-0.26408176L229.30396814 99.25024564c-12.66045518-6.73574226-28.3970761-1.13809293-35.14828757 11.5334117-6.73795214 12.67039967-1.93917777 25.61261572 10.74116639 32.3583025l197.99502212 102.58637109H80.57621569c-17.8713739 0-35.35712211 20.94422482-35.35712212 38.85427178v610.71061261c0 17.90783706 17.48574825 34.50741973 35.35712212 34.50741972h68.80158512c3.4164887 18.09015293 15.11564207 45.18118451 25.5496339 56.02621573 14.5289165 15.11564207 33.72180412 23.12207062 51.32136161 23.12207062h0.03867308c20.13540537 0 41.39232951-8.96994021 56.87149834-25.55294875 9.97764969-10.67818458 21.37183836-35.50518468 25.42919492-53.59644254h412.52001534c3.40764913 18.09125786 15.11564207 45.18339441 25.53968939 56.02732067 14.53886099 15.11564207 33.73064368 23.12207062 51.32246658 23.12207062h0.06740161c20.11551635 0 41.36360094-8.96994021 56.84276978-25.55294875 9.97764969-10.67818458 21.37073342-35.50518468 25.4358246-53.59644254h77.7030188c9.27269504 0 15.11785195-4.96783091 18.41058685-8.29371412 7.53240731-7.64842648 7.40754857-17.92441124 7.33020247-23.7706731zM254.66686639 954.91050099c-9.71135806 10.3864792-21.01936105 11.07375474-28.37055744 11.07375473h-0.00883955c-5.55787132 0-15.20182774-0.89942489-23.26460847-9.27600987-5.53135264-5.7457119-11.66379516-20.12325099-14.35765008-26.90540093h80.13058208c-3.18224043 6.78435982-8.96110066 19.57630342-14.12892654 25.10765607z m571.73037721-0.00110494c-9.712463 10.38868908-21.01936105 11.07375474-28.35950802 11.07375471h-0.02872855c-5.55787132 0-15.19298821-0.89942489-23.26902825-9.27600987-5.52030319-5.7457119-11.65164076-20.12214602-14.33444623-26.9054009h80.11842769c-3.18003054 6.78325487-8.96883529 19.57630342-14.12671664 25.10765606z m115.46560528-66.94417329h-75.48208016c-1.2662665 0-2.59109508-0.40219985-3.93139287-0.40219982-1.3723412 0-2.71263898 0.40219985-4.00873899 0.40219982H743.07668645c-0.92373367 0-1.82536848-0.35468722-2.77783071-0.39115037-1.5612867-0.04640767-3.06732619 0.3911504-4.51369867 0.39115037H81.40271425V287.56374321h860.46013463v600.40037462z"
        fill="" p-id="1470"></path>
    <path
        d="M878.87879702 386.65627951c1.00770946-4.11149883 3.9247632-14.60957746-2.84191748-23.19941674-4.18884496-5.3545615-9.90582829-9.1820896-17.12885111-9.1820896H178.20470037c-12.97646933 0-35.74495767 11.33231179-35.74495767 32.67210673v415.90667055c0 25.07229782 23.71211102 30.83679377 35.74495767 30.83679377h680.704433c6.7291126 0 13.01182754-1.33145824 17.170839-6.3777402 7.15009649-8.67381507 2.83307795-18.25589461 1.7391828-23.81155604-0.12485874-0.72594859-2.66402142-0.86075184-2.66733625-0.86075184v0.10607469-0.10607469l2.23972269-414.56747767 1.48725541-1.41653897z m-45.56349532 404.06718916H191.11376807l0.05524725-400.26617978H833.3153017v400.26617978z"
        fill="" p-id="1471"></path>
    <path
        d="M374.36219961 491.14868l-130.74809401 62.53102458c-9.71798771 4.64518708-13.81180745 16.28025368-9.17766982 25.98608699 3.3424574 7.0020339 10.33123198 11.09585363 17.59071798 11.09585364a19.41387655 19.41387655 0 0 0 8.39978881-1.92039372l130.74588412-62.52881466c9.72019762-4.64850191 13.8228569-16.28246356 9.17656486-25.99161172-4.65181675-9.71467288-16.29572289-13.8526904-25.98719194-9.17214511zM782.75635183 565.1943322l-144.548852-88.51711154c-9.15778082-5.61643337-21.17405329-2.74468237-26.80927074 6.44624675-5.61753832 9.17545992-2.74136754 21.17736812 6.45508634 26.79711634l144.55216685 88.52263628a19.40835181 19.40835181 0 0 0 10.14560127 2.86622627c6.57994507 0 12.97646933-3.30378435 16.65924967-9.31247304 5.61753832-9.1820896 2.73363293-21.18178789-6.45287644-26.80264106zM646.64154193 627.29442835c-10.77762958 0-19.48790783 8.72685241-19.48790783 19.4890128 0 30.35282803-19.50558696 64.15639807-47.47394457 64.15639805-20.05805925 0-38.11727372-25.13196483-44.75467591-47.58885879-1.73034322-5.8694657-2.73031809-11.55993035-2.73031809-16.56753926 0-10.07709471-7.67384022-18.26915394-17.48022351-19.28680793-9.82295745 1.01765398-17.49679768 9.21192309-17.49679764 19.28680793 0 5.84184208-0.74362772 11.78754894-2.09387002 17.60950201-5.7335575 24.48115246-22.79169219 46.54800098-45.38338937 46.54800098-25.29439168 0-47.4772594-39.98131525-47.4772594-64.15639805 0-10.76216036-8.72906232-19.48790783-19.49564243-19.48790784-10.7555307 0-19.48790783 8.72574747-19.48790784 19.48790784 0 41.06084612 34.48200599 103.1388434 86.46191459 103.13884339 28.65342326 0 51.37771381-15.48358861 66.35413287-37.44325751 15.16204973 21.26244884 37.0786258 37.44325751 63.58293182 37.44325751 53.39644758 0 86.45859978-53.5356706 86.45859976-103.13884339 0-10.76216036-8.72022275-19.48901276-19.49564243-19.48901277z"
        fill="" p-id="1472"></path>
</svg>